<svg xmlns="http://www.w3.org/2000/svg" width="28.814" height="25.756"><path data-name="Контур 20453" d="M27.613 14.92H1.2c-.663 0-1.2-.915-1.2-2.042s.538-2.042 1.2-2.042h26.413c.663 0 1.2.915 1.2 2.042s-.537 2.042-1.2 2.042zm0 0" fill="#fff"/><path data-name="Контур 20454" d="M27.613 4.084H1.2c-.662 0-1.2-.915-1.2-2.042S.538 0 1.2 0h26.413c.663 0 1.2.915 1.2 2.042s-.537 2.042-1.2 2.042zm0 0" fill="#fff"/><path data-name="Контур 20455" d="M27.613 25.756H1.2c-.663 0-1.2-.915-1.2-2.042s.538-2.042 1.2-2.042h26.413c.663 0 1.2.915 1.2 2.042s-.537 2.042-1.2 2.042zm0 0" fill="#fff"/></svg>